<svg width="200" height="220" viewBox="0 0 200 220" fill="none" xmlns="http://www.w3.org/2000/svg">
<g filter="url(#filter0_d_15_29)">
<path d="M98.7514 0.997897C99.4815 0.414363 100.518 0.414363 101.249 0.997897L194.055 75.1687C194.69 75.6763 194.955 76.5179 194.725 77.2976L159.202 197.558C158.951 198.408 158.17 198.992 157.284 198.992H42.7161C41.8298 198.992 41.0492 198.408 40.7981 197.558L5.27524 77.2976C5.04492 76.5179 5.30955 75.6763 5.94469 75.1687L98.7514 0.997897Z" fill="#003CB4"/>
</g>
<path d="M64.6 134.826V117.29C64.6 114.048 64.2587 111.722 63.576 110.314C62.8933 108.906 61.4853 108.202 59.352 108.202C57.56 108.202 56.1307 108.65 55.064 109.546C53.9973 110.4 53.1653 111.53 52.568 112.938V134.826H43.608V101.226H50.52L51.544 105.898H52.376C52.9307 105.173 53.5707 104.469 54.296 103.786C55.0213 103.104 55.8107 102.506 56.664 101.994C57.56 101.482 58.5413 101.077 59.608 100.778C60.7173 100.437 61.9547 100.266 63.32 100.266C65.5813 100.266 67.4587 100.778 68.952 101.802C70.488 102.784 71.704 104.448 72.6 106.794C73.8373 104.746 75.3307 103.146 77.08 101.994C78.872 100.842 80.9413 100.266 83.288 100.266C85.336 100.266 87.064 100.501 88.472 100.97C89.9227 101.44 91.096 102.25 91.992 103.402C92.888 104.554 93.528 106.112 93.912 108.074C94.3387 110.037 94.552 112.49 94.552 115.434V134.826H85.592V116.842C85.592 115.434 85.528 114.197 85.4 113.13C85.272 112.064 85.016 111.168 84.632 110.442C84.248 109.674 83.6933 109.12 82.968 108.778C82.2853 108.394 81.368 108.202 80.216 108.202C78.424 108.202 76.9733 108.672 75.864 109.61C74.7973 110.506 74.0293 111.765 73.56 113.386V134.826H64.6ZM127.412 125.29H112.308L108.66 134.826H99.1875L116.724 89.7062H123.7L141.3 134.826H131.252L127.412 125.29ZM114.932 117.802H125.172L121.716 108.458L120.18 101.354H119.86L118.324 108.522L114.932 117.802ZM147.009 101.226H155.969V134.826H147.009V101.226ZM145.665 92.8422C145.665 91.4768 146.155 90.3462 147.137 89.4502C148.118 88.5115 149.505 88.0422 151.297 88.0422C153.131 88.0422 154.582 88.5115 155.649 89.4502C156.715 90.3888 157.249 91.5195 157.249 92.8422C157.249 94.0795 156.715 95.1462 155.649 96.0422C154.582 96.9382 153.131 97.3862 151.297 97.3862C149.505 97.3862 148.118 96.9382 147.137 96.0422C146.155 95.1462 145.665 94.0795 145.665 92.8422Z" fill="white"/>
<path d="M55.9959 60.0438L53.5753 74.7515L63.6721 86.0829L48.296 83.7676L36.4495 93.4255L38.8701 78.7178L28.7732 67.3864L44.1494 69.7017L55.9959 60.0438Z" fill="white"/>
<defs>
<filter id="filter0_d_15_29" x="1.19312" y="0.560303" width="197.614" height="206.432" filterUnits="userSpaceOnUse" color-interpolation-filters="sRGB">
<feFlood flood-opacity="0" result="BackgroundImageFix"/>
<feColorMatrix in="SourceAlpha" type="matrix" values="0 0 0 0 0 0 0 0 0 0 0 0 0 0 0 0 0 0 127 0" result="hardAlpha"/>
<feOffset dy="4"/>
<feGaussianBlur stdDeviation="2"/>
<feComposite in2="hardAlpha" operator="out"/>
<feColorMatrix type="matrix" values="0 0 0 0 0.635294 0 0 0 0 0.635294 0 0 0 0 0.635294 0 0 0 1 0"/>
<feBlend mode="normal" in2="BackgroundImageFix" result="effect1_dropShadow_15_29"/>
<feBlend mode="normal" in="SourceGraphic" in2="effect1_dropShadow_15_29" result="shape"/>
</filter>
</defs>
</svg>
